# xmcd CD database file
#
# Track frame offsets:
#	150
#	17895
#	38121
#	66774
#	92433
#	113877
#	138819
#	167143
#	189931
#	220612
#	246619
#
# Disc length: 3664 seconds
#
# Revision: 0
# Processed by: cddbd v1.5.2PL0 Copyright (c) Steve Scherf et al.
# Submitted via: CDex 1.70beta2
#
DISCID=910e4e0b
DTITLE=KURT ROSENWINKEL - Caipi
DYEAR=2016
DGENRE=Jazz
TTITLE0=Caipi
TTITLE1=Kama
TTITLE2=Casio Vanguard
TTITLE3=Summer Song
TTITLE4=Chromatic B
TTITLE5=Hold On
TTITLE6=Ezra
TTITLE7=Little Dream
TTITLE8=Casio Escher
TTITLE9=Interscape
TTITLE10=Little B
EXTD=YEAR: 2016
EXTT0=
EXTT1=
EXTT2=
EXTT3=
EXTT4=
EXTT5=
EXTT6=
EXTT7=
EXTT8=
EXTT9=
EXTT10=
PLAYORDER=
